<svg xmlns="http://www.w3.org/2000/svg" xmlns:xlink="http://www.w3.org/1999/xlink" width="1024" zoomAndPan="magnify" viewBox="0 0 768 767.999994" height="1024" preserveAspectRatio="xMidYMid meet" version="1.0"><defs><g/><clipPath id="c49cc2bd42"><path d="M 485 331 L 616 331 L 616 414 L 485 414 Z M 485 331 " clip-rule="nonzero"/></clipPath><clipPath id="9bedb74415"><path d="M 615.273438 356.695312 L 497.875 413.691406 L 485.429688 388.050781 L 602.824219 331.054688 Z M 615.273438 356.695312 " clip-rule="nonzero"/></clipPath><clipPath id="7639cf0eb3"><path d="M 0.28125 16 L 126 16 L 126 74 L 0.28125 74 Z M 0.28125 16 " clip-rule="nonzero"/></clipPath><clipPath id="d8fef22c42"><path d="M 130.273438 25.695312 L 12.875 82.691406 L 0.429688 57.050781 L 117.824219 0.0546875 Z M 130.273438 25.695312 " clip-rule="nonzero"/></clipPath><clipPath id="0349b666ff"><path d="M 12.71875 82.765625 L 130.113281 25.769531 L 117.667969 0.132812 L 0.269531 57.128906 Z M 12.71875 82.765625 " clip-rule="nonzero"/></clipPath><clipPath id="7db79638de"><rect x="0" width="131" y="0" height="83"/></clipPath><clipPath id="36196063e9"><path d="M 187 291 L 226 291 L 226 329 L 187 329 Z M 187 291 " clip-rule="nonzero"/></clipPath><clipPath id="8fee065eba"><path d="M 181.664062 300.539062 L 197.210938 284.996094 L 231.640625 319.425781 L 216.09375 334.96875 Z M 181.664062 300.539062 " clip-rule="nonzero"/></clipPath><clipPath id="a915bd5625"><path d="M 189.4375 292.765625 C 185.144531 297.058594 189.363281 308.238281 198.863281 317.738281 C 208.359375 327.234375 219.542969 331.457031 223.832031 327.164062 C 228.125 322.871094 223.90625 311.691406 214.40625 302.191406 C 204.910156 292.695312 193.730469 288.472656 189.4375 292.765625 Z M 189.4375 292.765625 " clip-rule="nonzero"/></clipPath><clipPath id="37fc2dd16d"><path d="M 0 0 L 39 0 L 39 38 L 0 38 Z M 0 0 " clip-rule="nonzero"/></clipPath><clipPath id="af81ad8776"><path d="M -5.335938 9.539062 L 10.210938 -6.003906 L 44.640625 28.425781 L 29.09375 43.96875 Z M -5.335938 9.539062 " clip-rule="nonzero"/></clipPath><clipPath id="e4204892b4"><path d="M 2.4375 1.765625 C -1.855469 6.058594 2.363281 17.238281 11.863281 26.738281 C 21.359375 36.234375 32.542969 40.457031 36.832031 36.164062 C 41.125 31.871094 36.90625 20.691406 27.40625 11.191406 C 17.910156 1.695312 6.730469 -2.527344 2.4375 1.765625 Z M 2.4375 1.765625 " clip-rule="nonzero"/></clipPath><clipPath id="99ade33274"><rect x="0" width="39" y="0" height="38"/></clipPath><clipPath id="859efdbb22"><path d="M 159.9375 350.195312 L 253.375 350.195312 L 253.375 433.25 L 159.9375 433.25 Z M 159.9375 350.195312 " clip-rule="nonzero"/></clipPath><clipPath id="649bd4717d"><path d="M 206.632812 350.195312 C 180.84375 350.195312 159.9375 368.785156 159.9375 391.722656 C 159.9375 414.65625 180.84375 433.25 206.632812 433.25 C 232.421875 433.25 253.328125 414.65625 253.328125 391.722656 C 253.328125 368.785156 232.421875 350.195312 206.632812 350.195312 Z M 206.632812 350.195312 " clip-rule="nonzero"/></clipPath><clipPath id="d597c045db"><path d="M 0.9375 0.195312 L 94.375 0.195312 L 94.375 83.25 L 0.9375 83.25 Z M 0.9375 0.195312 " clip-rule="nonzero"/></clipPath><clipPath id="ed90e91de5"><path d="M 47.632812 0.195312 C 21.84375 0.195312 0.9375 18.785156 0.9375 41.722656 C 0.9375 64.65625 21.84375 83.25 47.632812 83.25 C 73.421875 83.25 94.328125 64.65625 94.328125 41.722656 C 94.328125 18.785156 73.421875 0.195312 47.632812 0.195312 Z M 47.632812 0.195312 " clip-rule="nonzero"/></clipPath><clipPath id="ae7af2c77a"><rect x="0" width="95" y="0" height="84"/></clipPath><clipPath id="09a33c3622"><path d="M 200.476562 350.195312 L 293.914062 350.195312 L 293.914062 433.25 L 200.476562 433.25 Z M 200.476562 350.195312 " clip-rule="nonzero"/></clipPath><clipPath id="8b74e7a788"><path d="M 247.171875 350.195312 C 221.382812 350.195312 200.476562 368.785156 200.476562 391.722656 C 200.476562 414.65625 221.382812 433.25 247.171875 433.25 C 272.960938 433.25 293.867188 414.65625 293.867188 391.722656 C 293.867188 368.785156 272.960938 350.195312 247.171875 350.195312 Z M 247.171875 350.195312 " clip-rule="nonzero"/></clipPath><clipPath id="d9b700af6d"><path d="M 0.476562 0.195312 L 93.914062 0.195312 L 93.914062 83.25 L 0.476562 83.25 Z M 0.476562 0.195312 " clip-rule="nonzero"/></clipPath><clipPath id="d8f10eda1e"><path d="M 47.171875 0.195312 C 21.382812 0.195312 0.476562 18.785156 0.476562 41.722656 C 0.476562 64.65625 21.382812 83.25 47.171875 83.25 C 72.960938 83.25 93.867188 64.65625 93.867188 41.722656 C 93.867188 18.785156 72.960938 0.195312 47.171875 0.195312 Z M 47.171875 0.195312 " clip-rule="nonzero"/></clipPath><clipPath id="7af942d583"><rect x="0" width="94" y="0" height="84"/></clipPath><clipPath id="0663c248be"><path d="M 169.105469 372.296875 L 279.734375 372.296875 L 279.734375 455.351562 L 169.105469 455.351562 Z M 169.105469 372.296875 " clip-rule="nonzero"/></clipPath><clipPath id="6ae1be3973"><path d="M 224.308594 372.296875 C 193.820312 372.296875 169.105469 390.890625 169.105469 413.824219 C 169.105469 436.757812 193.820312 455.351562 224.308594 455.351562 C 254.796875 455.351562 279.515625 436.757812 279.515625 413.824219 C 279.515625 390.890625 254.796875 372.296875 224.308594 372.296875 Z M 224.308594 372.296875 " clip-rule="nonzero"/></clipPath><clipPath id="08bb294efc"><path d="M 0.105469 0.296875 L 110.601562 0.296875 L 110.601562 83.351562 L 0.105469 83.351562 Z M 0.105469 0.296875 " clip-rule="nonzero"/></clipPath><clipPath id="7f3e766dc6"><path d="M 55.308594 0.296875 C 24.820312 0.296875 0.105469 18.890625 0.105469 41.824219 C 0.105469 64.757812 24.820312 83.351562 55.308594 83.351562 C 85.796875 83.351562 110.515625 64.757812 110.515625 41.824219 C 110.515625 18.890625 85.796875 0.296875 55.308594 0.296875 Z M 55.308594 0.296875 " clip-rule="nonzero"/></clipPath><clipPath id="dc647af173"><rect x="0" width="111" y="0" height="84"/></clipPath><clipPath id="a41f742f24"><path d="M 152.699219 285 L 298.199219 285 L 298.199219 459.75 L 152.699219 459.75 Z M 152.699219 285 " clip-rule="nonzero"/></clipPath><clipPath id="0b7d9116a7"><path d="M 0.839844 58 L 146.199219 58 L 146.199219 174.75 L 0.839844 174.75 Z M 0.839844 58 " clip-rule="nonzero"/></clipPath><clipPath id="a9c02e76e9"><rect x="0" width="147" y="0" height="175"/></clipPath></defs><rect x="-76.8" width="921.6" fill="#ffffff" y="-76.799999" height="921.599993" fill-opacity="1"/><rect x="-76.8" width="921.6" fill="#fcf4ea" y="-76.799999" height="921.599993" fill-opacity="1"/><g clip-path="url(#c49cc2bd42)"><g clip-path="url(#9bedb74415)"><g transform="matrix(1, 0, 0, 1, 485, 331)"><g clip-path="url(#7db79638de)"><g clip-path="url(#7639cf0eb3)"><g clip-path="url(#d8fef22c42)"><g clip-path="url(#0349b666ff)"><path fill="#363736" d="M 64.789062 57.476562 L 61.25 59.164062 C 51.792969 63.566406 42.234375 67.269531 32.566406 70.273438 L 14.25 73.644531 C 11.972656 69.992188 7.546875 64.78125 0.972656 58.003906 C 0.445312 57.257812 0.394531 56.828125 0.816406 56.722656 C 5.242188 57.046875 9.644531 57.183594 14.023438 57.140625 L 20.601562 56.921875 C 24.984375 56.679688 29.363281 56.242188 33.734375 55.613281 C 42.476562 54.359375 51.195312 52.332031 59.890625 49.53125 C 68.953125 46.765625 79.457031 42.386719 91.402344 36.394531 C 101.984375 31.066406 113.492188 24.511719 125.929688 16.734375 C 117.101562 24.296875 108.171875 31.183594 99.136719 37.386719 C 94.621094 40.492188 90.082031 43.425781 85.511719 46.1875 C 80.945312 48.953125 76.355469 51.546875 71.734375 53.96875 L 64.789062 57.476562 " fill-opacity="0.996" fill-rule="nonzero"/></g></g></g></g></g></g></g><g fill="#363736" fill-opacity="1"><g transform="translate(319.340202, 443.37492)"><g><path d="M 98.578125 -50.40625 C 98.578125 -47.4375 98.40625 -44.300781 98.0625 -41 L 23.234375 -41 C 23.804688 -31.78125 26.96875 -24.578125 32.71875 -19.390625 C 38.46875 -14.210938 45.441406 -11.625 53.640625 -11.625 C 60.359375 -11.625 65.96875 -13.1875 70.46875 -16.3125 C 74.96875 -19.445312 78.128906 -23.632812 79.953125 -28.875 L 96.703125 -28.875 C 94.191406 -19.875 89.175781 -12.554688 81.65625 -6.921875 C 74.144531 -1.285156 64.804688 1.53125 53.640625 1.53125 C 44.753906 1.53125 36.8125 -0.457031 29.8125 -4.4375 C 22.8125 -8.425781 17.316406 -14.09375 13.328125 -21.4375 C 9.335938 -28.78125 7.34375 -37.296875 7.34375 -46.984375 C 7.34375 -56.660156 9.28125 -65.144531 13.15625 -72.4375 C 17.03125 -79.726562 22.46875 -85.335938 29.46875 -89.265625 C 36.476562 -93.191406 44.535156 -95.15625 53.640625 -95.15625 C 62.523438 -95.15625 70.382812 -93.21875 77.21875 -89.34375 C 84.050781 -85.476562 89.316406 -80.15625 93.015625 -73.375 C 96.722656 -66.601562 98.578125 -58.945312 98.578125 -50.40625 Z M 82.515625 -53.640625 C 82.515625 -59.566406 81.203125 -64.664062 78.578125 -68.9375 C 75.960938 -73.207031 72.40625 -76.453125 67.90625 -78.671875 C 63.40625 -80.890625 58.425781 -82 52.96875 -82 C 45.101562 -82 38.40625 -79.492188 32.875 -74.484375 C 27.351562 -69.472656 24.195312 -62.523438 23.40625 -53.640625 Z M 82.515625 -53.640625 "/></g></g></g><g fill="#363736" fill-opacity="1"><g transform="translate(413.982653, 443.37492)"><g><path d="M 28.703125 -126.421875 L 28.703125 0 L 13.15625 0 L 13.15625 -126.421875 Z M 28.703125 -126.421875 "/></g></g></g><g fill="#363736" fill-opacity="1"><g transform="translate(444.732446, 443.37492)"><g><path d="M 28.703125 -126.421875 L 28.703125 0 L 13.15625 0 L 13.15625 -126.421875 Z M 28.703125 -126.421875 "/></g></g></g><g fill="#363736" fill-opacity="1"><g transform="translate(475.482238, 443.37492)"><g><path d="M 53.984375 1.53125 C 45.210938 1.53125 37.265625 -0.457031 30.140625 -4.4375 C 23.023438 -8.425781 17.445312 -14.09375 13.40625 -21.4375 C 9.363281 -28.78125 7.34375 -37.296875 7.34375 -46.984375 C 7.34375 -56.546875 9.421875 -65 13.578125 -72.34375 C 17.734375 -79.695312 23.398438 -85.335938 30.578125 -89.265625 C 37.753906 -93.191406 45.785156 -95.15625 54.671875 -95.15625 C 63.554688 -95.15625 71.582031 -93.191406 78.75 -89.265625 C 85.925781 -85.335938 91.59375 -79.726562 95.75 -72.4375 C 99.914062 -65.144531 102 -56.660156 102 -46.984375 C 102 -37.296875 99.863281 -28.78125 95.59375 -21.4375 C 91.320312 -14.09375 85.539062 -8.425781 78.25 -4.4375 C 70.957031 -0.457031 62.867188 1.53125 53.984375 1.53125 Z M 53.984375 -12.125 C 59.566406 -12.125 64.804688 -13.429688 69.703125 -16.046875 C 74.597656 -18.671875 78.554688 -22.601562 81.578125 -27.84375 C 84.597656 -33.082031 86.109375 -39.460938 86.109375 -46.984375 C 86.109375 -54.492188 84.625 -60.867188 81.65625 -66.109375 C 78.695312 -71.347656 74.828125 -75.25 70.046875 -77.8125 C 65.265625 -80.375 60.082031 -81.65625 54.5 -81.65625 C 48.800781 -81.65625 43.585938 -80.375 38.859375 -77.8125 C 34.140625 -75.25 30.351562 -71.347656 27.5 -66.109375 C 24.65625 -60.867188 23.234375 -54.492188 23.234375 -46.984375 C 23.234375 -39.347656 24.628906 -32.910156 27.421875 -27.671875 C 30.210938 -22.429688 33.941406 -18.53125 38.609375 -15.96875 C 43.273438 -13.40625 48.398438 -12.125 53.984375 -12.125 Z M 53.984375 -12.125 "/></g></g></g><g clip-path="url(#36196063e9)"><g clip-path="url(#8fee065eba)"><g clip-path="url(#a915bd5625)"><g transform="matrix(1, 0, 0, 1, 187, 291)"><g clip-path="url(#99ade33274)"><g clip-path="url(#37fc2dd16d)"><g clip-path="url(#af81ad8776)"><g clip-path="url(#e4204892b4)"><path fill="#548749" d="M -5.335938 9.539062 L 10.210938 -6.003906 L 44.578125 28.363281 L 29.035156 43.910156 Z M -5.335938 9.539062 " fill-opacity="1" fill-rule="nonzero"/></g></g></g></g></g></g></g></g><g clip-path="url(#859efdbb22)"><g clip-path="url(#649bd4717d)"><g transform="matrix(1, 0, 0, 1, 159, 350)"><g clip-path="url(#ae7af2c77a)"><g clip-path="url(#d597c045db)"><g clip-path="url(#ed90e91de5)"><path fill="#fd6842" d="M 0.9375 0.195312 L 94.375 0.195312 L 94.375 83.25 L 0.9375 83.25 Z M 0.9375 0.195312 " fill-opacity="1" fill-rule="nonzero"/></g></g></g></g></g></g><g clip-path="url(#09a33c3622)"><g clip-path="url(#8b74e7a788)"><g transform="matrix(1, 0, 0, 1, 200, 350)"><g clip-path="url(#7af942d583)"><g clip-path="url(#d9b700af6d)"><g clip-path="url(#d8f10eda1e)"><path fill="#fd6842" d="M 0.476562 0.195312 L 93.914062 0.195312 L 93.914062 83.25 L 0.476562 83.25 Z M 0.476562 0.195312 " fill-opacity="1" fill-rule="nonzero"/></g></g></g></g></g></g><g clip-path="url(#0663c248be)"><g clip-path="url(#6ae1be3973)"><g transform="matrix(1, 0, 0, 1, 169, 372)"><g clip-path="url(#dc647af173)"><g clip-path="url(#08bb294efc)"><g clip-path="url(#7f3e766dc6)"><path fill="#fd6842" d="M 0.105469 0.296875 L 110.410156 0.296875 L 110.410156 83.351562 L 0.105469 83.351562 Z M 0.105469 0.296875 " fill-opacity="1" fill-rule="nonzero"/></g></g></g></g></g></g><g clip-path="url(#a41f742f24)"><g transform="matrix(1, 0, 0, 1, 152, 285)"><g clip-path="url(#a9c02e76e9)"><g clip-path="url(#0b7d9116a7)"><path fill="#363736" d="M 49.257812 58.230469 C 57.023438 58.230469 65.757812 60.171875 73.519531 64.054688 C 81.285156 60.171875 89.046875 58.230469 97.78125 58.230469 C 112.339844 58.230469 123.988281 63.082031 132.722656 70.847656 C 141.457031 79.582031 146.308594 92.199219 146.308594 107.726562 C 146.308594 144.605469 106.515625 174.691406 73.519531 174.691406 C 40.523438 174.691406 0.730469 144.605469 0.730469 107.726562 C 0.730469 73.757812 24.996094 58.230469 49.257812 58.230469 Z M 73.519531 164.984375 C 101.664062 164.984375 136.601562 138.78125 136.601562 107.726562 C 136.601562 95.109375 132.722656 85.40625 125.925781 78.609375 C 119.132812 71.816406 109.429688 67.933594 97.78125 67.933594 C 70.609375 66.964844 49.257812 89.285156 49.257812 116.460938 L 39.550781 116.460938 C 39.550781 97.050781 48.285156 80.550781 62.84375 69.875 C 57.992188 68.90625 54.109375 67.933594 49.257812 67.933594 C 31.789062 67.933594 10.4375 78.609375 10.4375 107.726562 C 10.4375 138.78125 45.375 164.984375 73.519531 164.984375 Z M 73.519531 164.984375 " fill-opacity="1" fill-rule="nonzero"/></g><path fill="#548749" d="M 73.519531 48.523438 L 78.371094 48.523438 L 78.371094 43.671875 C 78.371094 19.410156 58.960938 0 34.699219 0 L 29.847656 0 L 29.847656 4.851562 C 29.847656 29.113281 49.257812 48.523438 73.519531 48.523438 Z M 39.550781 9.703125 C 54.109375 12.617188 65.757812 24.261719 68.667969 38.820312 C 54.109375 35.910156 42.464844 24.261719 39.550781 9.703125 Z M 39.550781 9.703125 " fill-opacity="1" fill-rule="nonzero"/></g></g></g></svg>